<svg xmlns="http://www.w3.org/2000/svg" viewBox="0 0 32 32">
  <defs>
    <linearGradient id="grad" x1="0%" y1="0%" x2="100%" y2="100%">
      <stop offset="0%" style="stop-color:#6366f1;stop-opacity:1" />
      <stop offset="100%" style="stop-color:#8b5cf6;stop-opacity:1" />
    </linearGradient>
  </defs>
  <rect width="32" height="32" rx="6" fill="url(#grad)"/>
  <!-- Simplified card -->
  <rect x="7" y="6" width="18" height="12" rx="2" fill="white"/>
  <rect x="9" y="8" width="8" height="1.5" rx="0.75" fill="#6366f1" opacity="0.4"/>
  <rect x="9" y="11" width="12" height="1" rx="0.5" fill="#6366f1" opacity="0.3"/>
  <rect x="9" y="13.5" width="10" height="1" rx="0.5" fill="#6366f1" opacity="0.3"/>
  <!-- Mini brain -->
  <circle cx="16" cy="24" r="5" fill="white" opacity="0.95"/>
  <path d="M13.5 23 Q13.5 21 16 21 Q18.5 21 18.5 23 Q19.5 23 19.5 24.5 Q19.5 26 17.5 26 L17.5 27 L14.5 27 L14.5 26 Q12.5 26 12.5 24.5 Q12.5 23 13.5 23 Z" fill="url(#grad)"/>
</svg>
